<?xml version="1.0" encoding="UTF-8" standalone="no"?>
<!-- Created with Inkscape (http://www.inkscape.org/) -->

<svg
   width="12mm"
   height="12mm"
   viewBox="0 0 12 12"
   version="1.1"
   id="svg1"
   inkscape:version="1.3.2 (091e20e, 2023-11-25, custom)"
   sodipodi:docname="icon.svg"
   xmlns:inkscape="http://www.inkscape.org/namespaces/inkscape"
   xmlns:sodipodi="http://sodipodi.sourceforge.net/DTD/sodipodi-0.dtd"
   xmlns:xlink="http://www.w3.org/1999/xlink"
   xmlns="http://www.w3.org/2000/svg"
   xmlns:svg="http://www.w3.org/2000/svg">
  <sodipodi:namedview
     id="namedview1"
     pagecolor="#ffffff"
     bordercolor="#000000"
     borderopacity="0.25"
     inkscape:showpageshadow="2"
     inkscape:pageopacity="0.0"
     inkscape:pagecheckerboard="0"
     inkscape:deskcolor="#d1d1d1"
     inkscape:document-units="mm"
     inkscape:zoom="11.822492"
     inkscape:cx="22.203441"
     inkscape:cy="14.337079"
     inkscape:window-width="2560"
     inkscape:window-height="1369"
     inkscape:window-x="1912"
     inkscape:window-y="-8"
     inkscape:window-maximized="1"
     inkscape:current-layer="layer1" />
  <defs
     id="defs1">
    <linearGradient
       inkscape:collect="always"
       xlink:href="#1e876979-497d-4d60-89fa-8fe1706baf81"
       id="linearGradient4"
       gradientTransform="scale(1.0801234,0.9258201)"
       x1="7.4065609"
       y1="15.121728"
       x2="85.175446"
       y2="15.121728"
       gradientUnits="userSpaceOnUse" />
    <linearGradient
       data-v-fde0c5aa=""
       gradientTransform="rotate(25)"
       id="1e876979-497d-4d60-89fa-8fe1706baf81"
       x1="0"
       y1="0"
       x2="1"
       y2="0">
      <stop
         data-v-fde0c5aa=""
         offset="0%"
         stop-color="#E90DCA"
         stop-opacity="1"
         id="stop2" />
      <stop
         data-v-fde0c5aa=""
         offset="100%"
         stop-color="#1536F1"
         stop-opacity="1"
         id="stop3" />
    </linearGradient>
    <linearGradient
       inkscape:collect="always"
       xlink:href="#1e876979-497d-4d60-89fa-8fe1706baf81"
       id="linearGradient1"
       gradientUnits="userSpaceOnUse"
       gradientTransform="scale(1.0801234,0.9258201)"
       x1="7.4065609"
       y1="15.121728"
       x2="85.175446"
       y2="15.121728" />
  </defs>
  <g
     inkscape:label="Layer 1"
     inkscape:groupmode="layer"
     id="layer1"
     transform="translate(-99.483334,-143.66875)">
    <g
       data-v-fde0c5aa=""
       id="626474e8-e9e7-445b-a028-c794695db19b"
       stroke="none"
       fill="url(#1e876979-497d-4d60-89fa-8fe1706baf81)"
       transform="matrix(0.13064638,0,0,0.13064638,98.975274,143.1601)"
       style="fill:url(#linearGradient4)">
      <path
         d="M 12,14 C 9.784,14 8,15.65 8,17.719 V 66.28 C 8,68.35 9.784,70 12,70 h 76 c 2.216,0 4,-1.65 4,-3.719 V 17.72 C 92,15.65 90.216,14 88,14 Z m 35.469,8 h 5.062 c 0.853,0.01 1.667,0.62 1.906,1.437 l 1,3.47 c 0.472,0.171 0.928,0.38 1.375,0.593 l 3.157,-1.75 c 0.753,-0.434 1.789,-0.3 2.406,0.312 l 3.531,3.563 c 0.608,0.606 0.755,1.622 0.344,2.375 l -1.75,3.125 c 0.223,0.467 0.415,0.944 0.594,1.437 l 3.468,0.97 c 0.829,0.242 1.446,1.074 1.438,1.937 V 44.5 c 0.008,0.863 -0.61,1.695 -1.438,1.937 l -3.468,1 c -0.175,0.48 -0.377,0.95 -0.594,1.407 l 1.75,3.125 c 0.411,0.753 0.264,1.77 -0.344,2.375 l -3.531,3.562 c -0.61,0.622 -1.647,0.77 -2.406,0.344 L 56.844,56.5 c -0.465,0.221 -0.948,0.417 -1.438,0.594 l -0.969,3.437 C 54.209,61.361 53.392,61.99 52.531,62 H 47.47 C 46.61,61.99 45.792,61.361 45.563,60.531 L 44.595,57.094 C 44.105,56.917 43.622,56.721 43.157,56.5 l -3.125,1.75 c -0.76,0.426 -1.796,0.278 -2.406,-0.344 L 34.095,54.344 C 33.487,53.738 33.34,52.722 33.751,51.969 l 1.75,-3.125 a 16.096,16.096 0 0 1 -0.594,-1.407 l -3.469,-1 C 30.61,46.195 29.993,45.363 30.001,44.5 v -5.031 c -0.008,-0.863 0.61,-1.695 1.437,-1.938 l 3.47,-0.969 c 0.178,-0.493 0.37,-0.97 0.593,-1.437 L 33.75,32 c -0.411,-0.753 -0.264,-1.77 0.344,-2.375 l 3.531,-3.563 c 0.617,-0.611 1.653,-0.746 2.406,-0.312 l 3.156,1.75 c 0.448,-0.212 0.904,-0.422 1.375,-0.594 l 1,-3.469 C 45.874,22.585 46.506,22.02 47.469,22 Z M 49,26 48.156,28.906 a 2.038,2.038 0 0 1 -1.375,1.375 C 45.812,30.548 44.867,30.944 44,31.437 a 2.039,2.039 0 0 1 -1.938,0 l -2.656,-1.468 -1.437,1.406 1.5,2.656 A 2.04,2.04 0 0 1 39.438,36 c -0.494,0.867 -0.89,1.781 -1.157,2.75 a 2.04,2.04 0 0 1 -1.375,1.406 L 34,41 v 2 l 2.906,0.812 a 2.04,2.04 0 0 1 1.375,1.407 c 0.267,0.969 0.664,1.884 1.156,2.75 a 2.04,2.04 0 0 1 0.032,1.969 l -1.5,2.656 1.437,1.406 2.656,-1.469 a 2.039,2.039 0 0 1 1.938,0 c 0.866,0.493 1.812,0.89 2.781,1.157 0.651,0.185 1.19,0.724 1.375,1.375 L 49,58 h 2 l 0.844,-2.937 c 0.185,-0.651 0.724,-1.19 1.375,-1.375 A 12.23,12.23 0 0 0 56,52.53 a 2.039,2.039 0 0 1 1.937,0 l 2.657,1.47 1.437,-1.406 -1.5,-2.656 a 2.04,2.04 0 0 1 0.031,-1.97 c 0.493,-0.865 0.89,-1.78 1.157,-2.75 a 2.04,2.04 0 0 1 1.375,-1.406 L 66,43 V 41 L 63.094,40.156 A 2.04,2.04 0 0 1 61.719,38.75 12.002,12.002 0 0 0 60.562,36 2.04,2.04 0 0 1 60.532,34.031 l 1.5,-2.656 -1.438,-1.406 -2.656,1.468 a 2.039,2.039 0 0 1 -1.938,0 12.239,12.239 0 0 0 -2.781,-1.156 2.038,2.038 0 0 1 -1.375,-1.375 L 51,26 Z m 1,8 c 4.395,0 8,3.605 8,8 0,4.395 -3.605,8 -8,8 -4.395,0 -8,-3.605 -8,-8 0,-4.395 3.605,-8 8,-8 z m 0,4 a 3.97,3.97 0 0 0 -4,4 c 0,2.233 1.767,4 4,4 2.233,0 4,-1.767 4,-4 0,-2.233 -1.767,-4 -4,-4 z m -9.063,34 c -0.121,3.047 -0.579,5.813 -1.687,8 h 21.5 C 59.642,77.813 59.184,75.047 59.062,72 Z M 31,82 a 2,2 0 1 0 0,4 h 38 a 2,2 0 1 0 0,-4 z"
         overflow="visible"
         color="#000000"
         id="path3"
         style="fill:url(#linearGradient1)" />
    </g>
  </g>
</svg>
