<?xml version="1.0" encoding="UTF-8" standalone="no"?>
<svg data-v-fde0c5aa="" viewBox="0 0 265.98465 78.005119" class="iconAbove" version="1.1" id="svg3" sodipodi:docname="logo.svg" width="265.98465" height="78.005119" inkscape:version="1.3.2 (091e20e, 2023-11-25, custom)"
   xmlns:inkscape="http://www.inkscape.org/namespaces/inkscape"
   xmlns:sodipodi="http://sodipodi.sourceforge.net/DTD/sodipodi-0.dtd"
   xmlns:xlink="http://www.w3.org/1999/xlink"
   xmlns="http://www.w3.org/2000/svg"
   xmlns:svg="http://www.w3.org/2000/svg">
   <sodipodi:namedview id="namedview3" pagecolor="#ffffff" bordercolor="#000000" borderopacity="0.25" inkscape:showpageshadow="true" inkscape:pageopacity="0.0" inkscape:pagecheckerboard="false" inkscape:deskcolor="#d1d1d1" showborder="true" shape-rendering="auto" labelstyle="default" borderlayer="true" inkscape:zoom="3.91" inkscape:cx="133.1202" inkscape:cy="39.514066" inkscape:window-width="2560" inkscape:window-height="1369" inkscape:window-x="1912" inkscape:window-y="-8" inkscape:window-maximized="1" inkscape:current-layer="svg3" />
   <!---->
   <defs data-v-fde0c5aa="" id="defs1">
      <!---->
      <linearGradient inkscape:collect="always" xlink:href="#1e876979-497d-4d60-89fa-8fe1706baf81" id="linearGradient3" gradientTransform="scale(1.0801234,0.9258201)" x1="7.4065609" y1="15.121728" x2="85.175446" y2="15.121728" gradientUnits="userSpaceOnUse" />
      <linearGradient inkscape:collect="always" xlink:href="#1e876979-497d-4d60-89fa-8fe1706baf81" id="linearGradient4" gradientTransform="scale(1.0801234,0.9258201)" x1="7.4065609" y1="15.121728" x2="85.175446" y2="15.121728" gradientUnits="userSpaceOnUse" />
   </defs>
   <rect data-v-fde0c5aa="" fill="transparent" x="0" y="0" width="265.98465" height="78.005119" class="logo-background-square" id="rect1" style="stroke-width:0.480141" />
   <defs data-v-fde0c5aa="" id="defs2">
      <!---->
   </defs>
   <g data-v-fde0c5aa="" id="4d8da10f-8db2-4e64-ac42-f9c8e41d6891" fill="#000000" transform="matrix(1.3695022,0,0,1.3695022,2.2848089,52.964949)">
      <path d="m 5.91,8.06 v 1.17 h 2.53 c -0.05,1.74 -1.29,2.79 -2.96,2.79 -2.05,0 -3.32,-1.65 -3.32,-3.58 0,-1.94 1.28,-3.51 3.4,-3.53 1.09,0 1.82,0.43 2.14,0.69 L 8.5,4.46 C 8.08,4.11 7,3.59 5.57,3.59 c -3.02,0 -4.96,2.16 -4.96,4.85 0,2.73 1.93,4.9 4.9,4.9 2.9,0 4.45,-2.13 4.45,-4.44 V 8.06 Z m 8.54,5.28 c 2.09,0 3.55,-1.53 3.55,-3.5 0,-1.95 -1.46,-3.48 -3.55,-3.48 -2.11,0 -3.56,1.53 -3.56,3.48 0,1.97 1.45,3.5 3.56,3.5 z m 0,-1.21 c -1.22,0 -2.08,-0.99 -2.08,-2.29 0,-1.28 0.86,-2.27 2.08,-2.27 1.21,0 2.07,0.99 2.07,2.27 0,1.3 -0.86,2.29 -2.07,2.29 z M 24.31,3.24 V 7.32 C 23.8,6.72 23.07,6.36 22.12,6.36 c -1.72,0 -3.09,1.33 -3.09,3.48 0,2.16 1.37,3.47 3.09,3.47 0.99,0 1.77,-0.4 2.28,-1.06 l 0.17,0.9 h 1.16 V 3.24 Z m -1.85,8.88 c -1.2,0 -1.98,-0.98 -1.98,-2.28 0,-1.29 0.78,-2.29 1.98,-2.29 1.24,0 2.04,1 2.04,2.29 0,1.3 -0.8,2.28 -2.04,2.28 z m 8.21,1.22 c 2.08,0 3.54,-1.53 3.54,-3.5 0,-1.95 -1.46,-3.48 -3.54,-3.48 -2.12,0 -3.56,1.53 -3.56,3.48 0,1.97 1.44,3.5 3.56,3.5 z m 0,-1.21 c -1.23,0 -2.09,-0.99 -2.09,-2.29 0,-1.28 0.86,-2.27 2.09,-2.27 1.21,0 2.07,0.99 2.07,2.27 0,1.3 -0.86,2.29 -2.07,2.29 z m 8.08,-5.6 H 37.33 V 4.64 h -1.4 v 1.89 h -0.87 v 1.14 h 0.87 v 5.48 h 1.42 L 37.33,7.67 h 1.42 z m 7.79,6.81 c 1.45,0 3.17,-0.75 3.17,-2.69 0,-1.48 -1.15,-2.34 -2.56,-2.83 -1.4,-0.51 -1.93,-0.91 -1.93,-1.68 0,-0.74 0.66,-1.27 1.49,-1.27 0.73,0 1.25,0.26 1.88,0.83 L 49.55,4.71 C 48.88,4.08 48.04,3.59 46.71,3.59 c -1.59,0 -3.02,1.05 -3.02,2.56 0,1.71 1.17,2.31 2.71,2.86 0.95,0.34 1.74,0.78 1.74,1.69 0,0.91 -0.88,1.36 -1.69,1.36 -0.91,0 -1.65,-0.34 -2.32,-1.17 l -1.05,1.01 c 0.83,0.93 1.91,1.44 3.46,1.44 z M 58.63,6.36 C 57.46,6.36 56.88,6.8 56.45,7.41 56.03,6.66 55.3,6.36 54.54,6.36 53.78,6.36 53.1,6.72 52.72,7.38 L 52.56,6.53 h -1.24 v 6.62 h 1.41 V 9.26 c 0.09,-1.11 0.62,-1.69 1.46,-1.69 0.91,0 1.27,0.74 1.27,1.82 v 3.76 h 1.42 V 9.6 c 0,-1.3 0.52,-2.03 1.44,-2.03 0.92,0 1.28,0.74 1.28,1.81 v 3.77 h 1.42 V 9.28 c 0,-2.16 -1.14,-2.92 -2.39,-2.92 z m 9.28,0.17 -0.19,0.92 c -0.51,-0.67 -1.28,-1.09 -2.3,-1.09 -1.72,0 -3.09,1.33 -3.09,3.48 0,2.16 1.37,3.47 3.09,3.47 1.01,0 1.78,-0.42 2.29,-1.09 l 0.2,0.93 h 1.17 V 6.53 Z m -2.15,5.59 c -1.2,0 -1.99,-0.98 -1.99,-2.28 0,-1.29 0.79,-2.29 1.99,-2.29 1.24,0 2.04,1 2.04,2.29 0,1.3 -0.8,2.28 -2.04,2.28 z m 8.16,-5.76 c -0.78,0 -1.31,0.38 -1.69,1.05 L 72.06,6.53 h -1.23 v 6.62 h 1.42 V 9.7 c 0,-1.08 0.56,-2.04 1.6,-2.04 0.23,0 0.45,0.04 0.64,0.13 L 74.91,6.58 C 74.74,6.47 74.36,6.36 73.92,6.36 Z m 5.03,0.17 H 77.54 V 4.64 h -1.4 v 1.89 h -0.88 v 1.14 h 0.88 v 5.48 h 1.41 L 77.54,7.67 h 1.41 z m 9.8,1.53 v 1.17 h 2.54 c -0.06,1.74 -1.3,2.79 -2.96,2.79 -2.06,0 -3.32,-1.65 -3.32,-3.58 0,-1.94 1.28,-3.51 3.39,-3.53 1.1,0 1.83,0.43 2.15,0.69 l 0.8,-1.14 c -0.42,-0.35 -1.5,-0.87 -2.93,-0.87 -3.02,0 -4.96,2.16 -4.96,4.85 0,2.73 1.93,4.9 4.9,4.9 2.9,0 4.45,-2.13 4.45,-4.44 V 8.06 Z m 8.55,-1.7 c -0.79,0 -1.31,0.38 -1.69,1.05 L 95.43,6.53 h -1.22 v 6.62 h 1.41 V 9.7 c 0,-1.08 0.57,-2.04 1.61,-2.04 0.23,0 0.45,0.04 0.64,0.13 L 98.29,6.58 C 98.12,6.47 97.74,6.36 97.3,6.36 Z m 6.87,0.17 -0.19,0.92 c -0.51,-0.67 -1.28,-1.09 -2.31,-1.09 -1.72,0 -3.09,1.33 -3.09,3.48 0,2.16 1.37,3.47 3.09,3.47 1.01,0 1.78,-0.42 2.29,-1.09 l 0.21,0.93 h 1.17 V 6.53 Z m -2.16,5.59 c -1.2,0 -1.98,-0.98 -1.98,-2.28 0,-1.29 0.78,-2.29 1.98,-2.29 1.24,0 2.04,1 2.04,2.29 0,1.3 -0.8,2.28 -2.04,2.28 z m 8.71,-5.76 c -1,0 -1.75,0.41 -2.28,1.06 l -0.12,-0.89 h -1.23 v 9.69 h 1.41 v -3.9 c 0.51,0.62 1.25,0.99 2.22,0.99 1.72,0 3.09,-1.31 3.09,-3.47 0,-2.15 -1.37,-3.48 -3.09,-3.48 z m -0.34,5.76 c -1.24,0 -2.04,-0.98 -2.04,-2.28 0,-1.29 0.8,-2.29 2.04,-2.29 1.2,0 1.98,1 1.98,2.29 0,1.3 -0.78,2.28 -1.98,2.28 z m 8.28,-5.76 c -0.93,0 -1.64,0.39 -2.05,0.99 V 3.24 h -1.42 v 9.91 h 1.42 V 9.42 c 0,-1.4 0.86,-1.85 1.66,-1.85 1.02,0 1.46,0.73 1.46,1.81 v 3.77 h 1.41 V 9.06 c 0,-2.06 -1.32,-2.7 -2.48,-2.7 z m 5.01,-1.1 c 0.51,0 0.92,-0.4 0.92,-0.9 0,-0.5 -0.41,-0.9 -0.92,-0.9 -0.5,0 -0.91,0.4 -0.91,0.9 0,0.5 0.41,0.9 0.91,0.9 z M 123,13.15 h 1.38 V 6.53 H 123 Z m 6.43,0.19 c 0.92,0 1.66,-0.27 2.27,-0.74 l -0.81,-1.02 c -0.37,0.35 -0.88,0.55 -1.43,0.55 -1.3,0 -2.07,-0.99 -2.07,-2.29 0,-1.29 0.77,-2.27 2.07,-2.27 0.55,0 1.06,0.2 1.43,0.55 L 131.7,7.1 c -0.61,-0.46 -1.35,-0.74 -2.27,-0.74 -2.06,0 -3.49,1.53 -3.49,3.48 0,1.97 1.43,3.5 3.49,3.5 z m 2.74,-1.12 c 0.48,0.66 1.49,1.12 2.73,1.12 1.63,0 2.64,-0.8 2.64,-1.99 0,-2.35 -3.5,-1.56 -3.5,-2.99 0,-0.5 0.37,-0.83 1.15,-0.85 0.48,-0.01 1.03,0.22 1.43,0.6 l 0.77,-0.89 c -0.44,-0.47 -1.28,-0.86 -2.26,-0.86 -1.58,0 -2.54,0.83 -2.54,2.05 0,2.41 3.44,1.68 3.44,2.97 0,0.49 -0.4,0.83 -1.22,0.83 -0.66,0 -1.26,-0.24 -1.74,-0.86 z m 13.43,1.12 c 1.46,0 3.18,-0.75 3.18,-2.69 0,-1.48 -1.15,-2.34 -2.57,-2.83 -1.4,-0.51 -1.92,-0.91 -1.92,-1.68 0,-0.74 0.65,-1.27 1.49,-1.27 0.72,0 1.25,0.26 1.88,0.83 l 0.96,-0.99 c -0.67,-0.63 -1.52,-1.12 -2.84,-1.12 -1.59,0 -3.02,1.05 -3.02,2.56 0,1.71 1.16,2.31 2.71,2.86 0.95,0.34 1.73,0.78 1.73,1.69 0,0.91 -0.87,1.36 -1.69,1.36 -0.9,0 -1.65,-0.34 -2.32,-1.17 l -1.05,1.01 c 0.84,0.93 1.91,1.44 3.46,1.44 z M 156.68,9.7 c 0,-1.97 -1.32,-3.34 -3.25,-3.34 -1.98,0 -3.41,1.53 -3.41,3.48 0,1.96 1.41,3.47 3.59,3.47 1.13,0 2.1,-0.39 2.69,-1.06 l -0.97,-0.79 c -0.43,0.48 -0.99,0.73 -1.74,0.73 -1.24,0 -1.98,-0.86 -2.08,-2.04 h 5.17 z m -3.25,-2.2 c 1.04,0 1.71,0.62 1.85,1.67 h -3.72 c 0.21,-1 0.89,-1.67 1.87,-1.67 z m 7.8,-0.97 h -1.41 V 4.64 h -1.4 v 1.89 h -0.88 v 1.14 h 0.88 v 5.48 h 1.41 l -0.01,-5.48 h 1.41 z m 4.22,0 h -1.42 V 4.64 h -1.4 v 1.89 h -0.87 v 1.14 h 0.87 v 5.48 h 1.42 l -0.02,-5.48 h 1.42 z m 1.91,-1.27 c 0.51,0 0.92,-0.4 0.92,-0.9 0,-0.5 -0.41,-0.9 -0.92,-0.9 -0.5,0 -0.91,0.4 -0.91,0.9 0,0.5 0.41,0.9 0.91,0.9 z m -0.67,7.89 h 1.38 V 6.53 h -1.38 z m 6.76,-6.79 c -0.93,0 -1.63,0.39 -2.04,0.96 L 171.24,6.53 H 170 v 6.62 h 1.41 V 9.11 c 0.12,-1.16 0.91,-1.54 1.65,-1.54 1.02,0 1.46,0.73 1.46,1.81 v 3.77 h 1.41 V 9.06 c 0,-2.06 -1.32,-2.7 -2.48,-2.7 z m 9.38,0.17 -0.19,0.94 c -0.51,-0.67 -1.28,-1.11 -2.3,-1.11 -1.72,0 -3.09,1.31 -3.09,3.45 0,2.15 1.37,3.46 3.09,3.46 0.96,0 1.72,-0.38 2.23,-1.01 v 0.17 c 0,1.7 -0.51,2.59 -1.91,2.59 -0.37,0 -0.76,-0.07 -1.11,-0.23 l -0.32,1.19 c 0.44,0.15 0.98,0.24 1.5,0.24 2.16,0 3.25,-1.27 3.25,-3.68 V 6.53 Z m -2.16,5.54 c -1.19,0 -1.98,-0.96 -1.98,-2.26 0,-1.28 0.79,-2.27 1.98,-2.27 1.24,0 2.04,0.99 2.04,2.27 0,1.3 -0.8,2.26 -2.04,2.26 z m 4.42,0.15 c 0.48,0.66 1.49,1.12 2.73,1.12 1.63,0 2.64,-0.8 2.64,-1.99 0,-2.35 -3.5,-1.56 -3.5,-2.99 0,-0.5 0.38,-0.83 1.15,-0.85 0.48,-0.01 1.04,0.22 1.43,0.6 l 0.77,-0.89 c -0.43,-0.47 -1.28,-0.86 -2.26,-0.86 -1.57,0 -2.54,0.83 -2.54,2.05 0,2.41 3.45,1.68 3.45,2.97 0,0.49 -0.41,0.83 -1.23,0.83 -0.65,0 -1.25,-0.24 -1.73,-0.86 z" id="path2" />
   </g>
   <defs data-v-fde0c5aa="" id="defs3">
      <linearGradient data-v-fde0c5aa="" gradientTransform="rotate(25)" id="1e876979-497d-4d60-89fa-8fe1706baf81" x1="0" y1="0" x2="1" y2="0">
         <stop data-v-fde0c5aa="" offset="0%" stop-color="#E90DCA" stop-opacity="1" id="stop2" />
         <stop data-v-fde0c5aa="" offset="100%" stop-color="#1536F1" stop-opacity="1" id="stop3" />
      </linearGradient>
   </defs>
   <g data-v-fde0c5aa="" id="626474e8-e9e7-445b-a028-c794695db19b" stroke="none" fill="url(#1e876979-497d-4d60-89fa-8fe1706baf81)" transform="matrix(0.49378161,0,0,0.49378161,108.43112,-3.0630814)" style="fill:url(#linearGradient4)">
      <path d="M 12,14 C 9.784,14 8,15.65 8,17.719 V 66.28 C 8,68.35 9.784,70 12,70 h 76 c 2.216,0 4,-1.65 4,-3.719 V 17.72 C 92,15.65 90.216,14 88,14 Z m 35.469,8 h 5.062 c 0.853,0.01 1.667,0.62 1.906,1.437 l 1,3.47 c 0.472,0.171 0.928,0.38 1.375,0.593 l 3.157,-1.75 c 0.753,-0.434 1.789,-0.3 2.406,0.312 l 3.531,3.563 c 0.608,0.606 0.755,1.622 0.344,2.375 l -1.75,3.125 c 0.223,0.467 0.415,0.944 0.594,1.437 l 3.468,0.97 c 0.829,0.242 1.446,1.074 1.438,1.937 V 44.5 c 0.008,0.863 -0.61,1.695 -1.438,1.937 l -3.468,1 c -0.175,0.48 -0.377,0.95 -0.594,1.407 l 1.75,3.125 c 0.411,0.753 0.264,1.77 -0.344,2.375 l -3.531,3.562 c -0.61,0.622 -1.647,0.77 -2.406,0.344 L 56.844,56.5 c -0.465,0.221 -0.948,0.417 -1.438,0.594 l -0.969,3.437 C 54.209,61.361 53.392,61.99 52.531,62 H 47.47 C 46.61,61.99 45.792,61.361 45.563,60.531 L 44.595,57.094 C 44.105,56.917 43.622,56.721 43.157,56.5 l -3.125,1.75 c -0.76,0.426 -1.796,0.278 -2.406,-0.344 L 34.095,54.344 C 33.487,53.738 33.34,52.722 33.751,51.969 l 1.75,-3.125 a 16.096,16.096 0 0 1 -0.594,-1.407 l -3.469,-1 C 30.61,46.195 29.993,45.363 30.001,44.5 v -5.031 c -0.008,-0.863 0.61,-1.695 1.437,-1.938 l 3.47,-0.969 c 0.178,-0.493 0.37,-0.97 0.593,-1.437 L 33.75,32 c -0.411,-0.753 -0.264,-1.77 0.344,-2.375 l 3.531,-3.563 c 0.617,-0.611 1.653,-0.746 2.406,-0.312 l 3.156,1.75 c 0.448,-0.212 0.904,-0.422 1.375,-0.594 l 1,-3.469 C 45.874,22.585 46.506,22.02 47.469,22 Z M 49,26 48.156,28.906 a 2.038,2.038 0 0 1 -1.375,1.375 C 45.812,30.548 44.867,30.944 44,31.437 a 2.039,2.039 0 0 1 -1.938,0 l -2.656,-1.468 -1.437,1.406 1.5,2.656 A 2.04,2.04 0 0 1 39.438,36 c -0.494,0.867 -0.89,1.781 -1.157,2.75 a 2.04,2.04 0 0 1 -1.375,1.406 L 34,41 v 2 l 2.906,0.812 a 2.04,2.04 0 0 1 1.375,1.407 c 0.267,0.969 0.664,1.884 1.156,2.75 a 2.04,2.04 0 0 1 0.032,1.969 l -1.5,2.656 1.437,1.406 2.656,-1.469 a 2.039,2.039 0 0 1 1.938,0 c 0.866,0.493 1.812,0.89 2.781,1.157 0.651,0.185 1.19,0.724 1.375,1.375 L 49,58 h 2 l 0.844,-2.937 c 0.185,-0.651 0.724,-1.19 1.375,-1.375 A 12.23,12.23 0 0 0 56,52.53 a 2.039,2.039 0 0 1 1.937,0 l 2.657,1.47 1.437,-1.406 -1.5,-2.656 a 2.04,2.04 0 0 1 0.031,-1.97 c 0.493,-0.865 0.89,-1.78 1.157,-2.75 a 2.04,2.04 0 0 1 1.375,-1.406 L 66,43 V 41 L 63.094,40.156 A 2.04,2.04 0 0 1 61.719,38.75 12.002,12.002 0 0 0 60.562,36 2.04,2.04 0 0 1 60.532,34.031 l 1.5,-2.656 -1.438,-1.406 -2.656,1.468 a 2.039,2.039 0 0 1 -1.938,0 12.239,12.239 0 0 0 -2.781,-1.156 2.038,2.038 0 0 1 -1.375,-1.375 L 51,26 Z m 1,8 c 4.395,0 8,3.605 8,8 0,4.395 -3.605,8 -8,8 -4.395,0 -8,-3.605 -8,-8 0,-4.395 3.605,-8 8,-8 z m 0,4 a 3.97,3.97 0 0 0 -4,4 c 0,2.233 1.767,4 4,4 2.233,0 4,-1.767 4,-4 0,-2.233 -1.767,-4 -4,-4 z m -9.063,34 c -0.121,3.047 -0.579,5.813 -1.687,8 h 21.5 C 59.642,77.813 59.184,75.047 59.062,72 Z M 31,82 a 2,2 0 1 0 0,4 h 38 a 2,2 0 1 0 0,-4 z" overflow="visible" color="#000000" id="path3" style="fill:url(#linearGradient3)" />
   </g>
   <!---->
</svg>
