<?xml version="1.0" encoding="UTF-8" standalone="no"?>
<!-- Created with Inkscape (http://www.inkscape.org/) -->

<svg
   width="16.0px"
   height="16.0px"
   viewBox="0 0 16.0 16.0"
   version="1.1"
   id="SVGRoot"
   sodipodi:docname="smart-graphics-settings-icon.svg"
   inkscape:version="1.2.1 (9c6d41e410, 2022-07-14)"
   xmlns:inkscape="http://www.inkscape.org/namespaces/inkscape"
   xmlns:sodipodi="http://sodipodi.sourceforge.net/DTD/sodipodi-0.dtd"
   xmlns="http://www.w3.org/2000/svg"
   xmlns:svg="http://www.w3.org/2000/svg">
  <sodipodi:namedview
     id="namedview272"
     pagecolor="#505050"
     bordercolor="#eeeeee"
     borderopacity="1"
     inkscape:showpageshadow="0"
     inkscape:pageopacity="0"
     inkscape:pagecheckerboard="0"
     inkscape:deskcolor="#505050"
     inkscape:document-units="px"
     showgrid="true"
     inkscape:zoom="23.917621"
     inkscape:cx="1.0243494"
     inkscape:cy="11.915901"
     inkscape:window-width="1920"
     inkscape:window-height="1011"
     inkscape:window-x="0"
     inkscape:window-y="32"
     inkscape:window-maximized="1"
     inkscape:current-layer="layer1">
    <inkscape:grid
       type="xygrid"
       id="grid278" />
  </sodipodi:namedview>
  <defs
     id="defs267" />
  <g
     inkscape:label="Layer 1"
     inkscape:groupmode="layer"
     id="layer1">
    <path
       d="M 5.4724868,16 V 13.177778 H 3.8947091 q -0.5333334,0 -0.9333334,-0.4 -0.4,-0.4 -0.4,-0.933334 V 9.3777778 H 1.6724868 q -0.4444444,0 -0.6666666,-0.4111111 Q 0.7835979,8.5555556 1.0280422,8.0888889 L 2.5613755,5.3333332 Q 3.1391533,2.911111 4.8391533,1.4555555 6.5391533,0 8.8280422,0 q 2.5555548,0 4.3888888,1.8333332 1.833333,1.8333334 1.833333,4.388889 0,1.8888889 -1.044444,3.3333334 Q 12.961375,11 11.161375,11.866667 V 16 Z M 6.8058202,14.666667 H 9.8280424 V 11 l 0.6222216,-0.288889 q 1.488889,-0.688889 2.377778,-1.8777777 0.888889,-1.188889 0.888889,-2.6111112 0,-2.0222222 -1.433333,-3.4555555 -1.433334,-1.4333334 -3.4555556,-1.4333334 -1.9777778,0 -3.3666667,1.3222223 -1.3888889,1.3222222 -1.5,2.9444444 L 2.6058202,8.0444443 H 3.8947091 V 11.844444 H 6.8058202 Z M 8.1391535,9.4666666 h 1.3333333 l 0.066667,-0.9777778 q 0.3111111,-0.066667 0.5333332,-0.2111111 0.222222,-0.1444445 0.377778,-0.3 L 11.383598,8.2888888 12.00582,7.2222221 11.339153,6.6888888 q 0.111112,-0.3111111 0.111112,-0.6444445 0,-0.3333332 -0.111112,-0.6444444 L 12.00582,4.8666666 11.383598,3.8 10.450264,4.111111 Q 10.294709,3.9555555 10.061376,3.8222222 9.8280424,3.6888888 9.5391535,3.6 L 9.4724868,2.6222221 H 8.1391535 L 8.0724865,3.6 Q 7.7835976,3.688889 7.5502643,3.8222222 7.316931,3.9555555 7.1613754,4.111111 L 6.2280421,3.8 5.6058199,4.8666666 6.2724865,5.3999999 Q 6.1613754,5.711111 6.1613754,6.0444443 q 0,0.3333334 0.1111111,0.6444445 L 5.6058199,7.2222221 6.2280421,8.2888888 7.1613754,7.9777777 Q 7.316931,8.1333333 7.5391532,8.2777778 7.7613754,8.4222222 8.0724865,8.4888889 Z M 8.8058202,7.5999999 q -0.6444445,0 -1.1,-0.4555556 -0.4555556,-0.4555555 -0.4555556,-1.1 0,-0.6444444 0.4555556,-1.1 0.4555555,-0.4555555 1.1,-0.4555555 0.6444444,0 1.1,0.4555555 0.4555548,0.4555556 0.4555548,1.1 0,0.6444445 -0.4555548,1.1 -0.4555556,0.4555556 -1.1,0.4555556 z m -0.6444445,0.4 z"
       id="path80"
       style="stroke-width:0.444444;fill:#e0e0e0;fill-opacity:1" />
  </g>
</svg>
