<svg data-v-fde0c5aa="" xmlns="http://www.w3.org/2000/svg" viewBox="0 0 300 300" class="font"><!----><defs data-v-fde0c5aa=""><!----></defs><rect data-v-fde0c5aa="" fill="transparent" x="0" y="0" width="300px" height="300px" class="logo-background-square"></rect><defs data-v-fde0c5aa=""><linearGradient data-v-fde0c5aa="" gradientTransform="rotate(25)" id="b92175e0-9f0e-4fc9-8381-814ae4c89e1c" x1="0%" y1="0%" x2="100%" y2="0%"><stop data-v-fde0c5aa="" offset="0%" stop-color="#E90DCA" stop-opacity="1"></stop><stop data-v-fde0c5aa="" offset="100%" stop-color="#1536F1" stop-opacity="1"></stop></linearGradient></defs><g data-v-fde0c5aa="" id="43ac8d7c-2690-414a-84bb-e90ad4777730" fill="url(#b92175e0-9f0e-4fc9-8381-814ae4c89e1c)" transform="matrix(1.1588095492609314,0,0,1.1588095492609314,39.29312615837393,138.72478333987033)"><path d="M5.91 8.06L5.91 9.23L8.44 9.23C8.39 10.97 7.15 12.02 5.48 12.02C3.43 12.02 2.16 10.37 2.16 8.44C2.16 6.50 3.44 4.93 5.56 4.91C6.65 4.91 7.38 5.34 7.70 5.60L8.50 4.46C8.08 4.11 7 3.59 5.57 3.59C2.55 3.59 0.61 5.75 0.61 8.44C0.61 11.17 2.54 13.34 5.51 13.34C8.41 13.34 9.96 11.21 9.96 8.90L9.96 8.06ZM14.45 13.34C16.54 13.34 18.00 11.81 18.00 9.84C18.00 7.89 16.54 6.36 14.45 6.36C12.34 6.36 10.89 7.89 10.89 9.84C10.89 11.81 12.34 13.34 14.45 13.34ZM14.45 12.13C13.23 12.13 12.37 11.14 12.37 9.84C12.37 8.56 13.23 7.57 14.45 7.57C15.66 7.57 16.52 8.56 16.52 9.84C16.52 11.14 15.66 12.13 14.45 12.13ZM24.31 3.24L24.31 7.32C23.80 6.72 23.07 6.36 22.12 6.36C20.40 6.36 19.03 7.69 19.03 9.84C19.03 12.00 20.40 13.31 22.12 13.31C23.11 13.31 23.89 12.91 24.40 12.25L24.57 13.15L25.73 13.15L25.73 3.24ZM22.46 12.12C21.26 12.12 20.48 11.14 20.48 9.84C20.48 8.55 21.26 7.55 22.46 7.55C23.70 7.55 24.50 8.55 24.50 9.84C24.50 11.14 23.70 12.12 22.46 12.12ZM30.67 13.34C32.75 13.34 34.21 11.81 34.21 9.84C34.21 7.89 32.75 6.36 30.67 6.36C28.55 6.36 27.11 7.89 27.11 9.84C27.11 11.81 28.55 13.34 30.67 13.34ZM30.67 12.13C29.44 12.13 28.58 11.14 28.58 9.84C28.58 8.56 29.44 7.57 30.67 7.57C31.88 7.57 32.74 8.56 32.74 9.84C32.74 11.14 31.88 12.13 30.67 12.13ZM38.75 6.53L37.33 6.53L37.33 4.64L35.93 4.64L35.93 6.53L35.06 6.53L35.06 7.67L35.93 7.67L35.93 13.15L37.35 13.15L37.33 7.67L38.75 7.67ZM46.54 13.34C47.99 13.34 49.71 12.59 49.71 10.65C49.71 9.17 48.56 8.31 47.15 7.82C45.75 7.31 45.22 6.91 45.22 6.14C45.22 5.40 45.88 4.87 46.71 4.87C47.44 4.87 47.96 5.13 48.59 5.70L49.55 4.71C48.88 4.08 48.04 3.59 46.71 3.59C45.12 3.59 43.69 4.64 43.69 6.15C43.69 7.86 44.86 8.46 46.40 9.01C47.35 9.35 48.14 9.79 48.14 10.70C48.14 11.61 47.26 12.06 46.45 12.06C45.54 12.06 44.80 11.72 44.13 10.89L43.08 11.90C43.91 12.83 44.99 13.34 46.54 13.34ZM58.63 6.36C57.46 6.36 56.88 6.80 56.45 7.41C56.03 6.66 55.30 6.36 54.54 6.36C53.78 6.36 53.10 6.72 52.72 7.38L52.56 6.53L51.32 6.53L51.32 13.15L52.73 13.15L52.73 9.26C52.82 8.15 53.35 7.57 54.19 7.57C55.10 7.57 55.46 8.31 55.46 9.39L55.46 13.15L56.88 13.15L56.88 9.60C56.88 8.30 57.40 7.57 58.32 7.57C59.24 7.57 59.60 8.31 59.60 9.38L59.60 13.15L61.02 13.15L61.02 9.28C61.02 7.12 59.88 6.36 58.63 6.36ZM67.91 6.53L67.72 7.45C67.21 6.78 66.44 6.36 65.42 6.36C63.70 6.36 62.33 7.69 62.33 9.84C62.33 12.00 63.70 13.31 65.42 13.31C66.43 13.31 67.20 12.89 67.71 12.22L67.91 13.15L69.08 13.15L69.08 6.53ZM65.76 12.12C64.56 12.12 63.77 11.14 63.77 9.84C63.77 8.55 64.56 7.55 65.76 7.55C67.00 7.55 67.80 8.55 67.80 9.84C67.80 11.14 67.00 12.12 65.76 12.12ZM73.92 6.36C73.14 6.36 72.61 6.74 72.23 7.41L72.06 6.53L70.83 6.53L70.83 13.15L72.25 13.15L72.25 9.70C72.25 8.62 72.81 7.66 73.85 7.66C74.08 7.66 74.30 7.70 74.49 7.79L74.91 6.58C74.74 6.47 74.36 6.36 73.92 6.36ZM78.95 6.53L77.54 6.53L77.54 4.64L76.14 4.64L76.14 6.53L75.26 6.53L75.26 7.67L76.14 7.67L76.14 13.15L77.55 13.15L77.54 7.67L78.95 7.67ZM88.75 8.06L88.75 9.23L91.29 9.23C91.23 10.97 89.99 12.02 88.33 12.02C86.27 12.02 85.01 10.37 85.01 8.44C85.01 6.50 86.29 4.93 88.40 4.91C89.50 4.91 90.23 5.34 90.55 5.60L91.35 4.46C90.93 4.11 89.85 3.59 88.42 3.59C85.40 3.59 83.46 5.75 83.46 8.44C83.46 11.17 85.39 13.34 88.36 13.34C91.26 13.34 92.81 11.21 92.81 8.90L92.81 8.06ZM97.30 6.36C96.51 6.36 95.99 6.74 95.61 7.41L95.43 6.53L94.21 6.53L94.21 13.15L95.62 13.15L95.62 9.70C95.62 8.62 96.19 7.66 97.23 7.66C97.46 7.66 97.68 7.70 97.87 7.79L98.29 6.58C98.12 6.47 97.74 6.36 97.30 6.36ZM104.17 6.53L103.98 7.45C103.47 6.78 102.70 6.36 101.67 6.36C99.95 6.36 98.58 7.69 98.58 9.84C98.58 12.00 99.95 13.31 101.67 13.31C102.68 13.31 103.45 12.89 103.96 12.22L104.17 13.15L105.34 13.15L105.34 6.53ZM102.01 12.12C100.81 12.12 100.03 11.14 100.03 9.84C100.03 8.55 100.81 7.55 102.01 7.55C103.25 7.55 104.05 8.55 104.05 9.84C104.05 11.14 103.25 12.12 102.01 12.12ZM110.72 6.36C109.72 6.36 108.97 6.77 108.44 7.42L108.32 6.53L107.09 6.53L107.09 16.22L108.50 16.22L108.50 12.32C109.01 12.94 109.75 13.31 110.72 13.31C112.44 13.31 113.81 12.00 113.81 9.84C113.81 7.69 112.44 6.36 110.72 6.36ZM110.38 12.12C109.14 12.12 108.34 11.14 108.34 9.84C108.34 8.55 109.14 7.55 110.38 7.55C111.58 7.55 112.36 8.55 112.36 9.84C112.36 11.14 111.58 12.12 110.38 12.12ZM118.66 6.36C117.73 6.36 117.02 6.75 116.61 7.35L116.61 3.24L115.19 3.24L115.19 13.15L116.61 13.15L116.61 9.42C116.61 8.02 117.47 7.57 118.27 7.57C119.29 7.57 119.73 8.30 119.73 9.38L119.73 13.15L121.14 13.15L121.14 9.06C121.14 7 119.82 6.36 118.66 6.36ZM123.67 5.26C124.18 5.26 124.59 4.86 124.59 4.36C124.59 3.86 124.18 3.46 123.67 3.46C123.17 3.46 122.76 3.86 122.76 4.36C122.76 4.86 123.17 5.26 123.67 5.26ZM123.00 13.15L124.38 13.15L124.38 6.53L123.00 6.53ZM129.43 13.34C130.35 13.34 131.09 13.07 131.70 12.60L130.89 11.58C130.52 11.93 130.01 12.13 129.46 12.13C128.16 12.13 127.39 11.14 127.39 9.84C127.39 8.55 128.16 7.57 129.46 7.57C130.01 7.57 130.52 7.77 130.89 8.12L131.70 7.10C131.09 6.64 130.35 6.36 129.43 6.36C127.37 6.36 125.94 7.89 125.94 9.84C125.94 11.81 127.37 13.34 129.43 13.34ZM132.17 12.22C132.65 12.88 133.66 13.34 134.90 13.34C136.53 13.34 137.54 12.54 137.54 11.35C137.54 9.00 134.04 9.79 134.04 8.36C134.04 7.86 134.41 7.53 135.19 7.51C135.67 7.50 136.22 7.73 136.62 8.11L137.39 7.22C136.95 6.75 136.11 6.36 135.13 6.36C133.55 6.36 132.59 7.19 132.59 8.41C132.59 10.82 136.03 10.09 136.03 11.38C136.03 11.87 135.63 12.21 134.81 12.21C134.15 12.21 133.55 11.97 133.07 11.35ZM145.60 13.34C147.06 13.34 148.78 12.59 148.78 10.65C148.78 9.17 147.63 8.31 146.21 7.82C144.81 7.31 144.29 6.91 144.29 6.14C144.29 5.40 144.94 4.87 145.78 4.87C146.50 4.87 147.03 5.13 147.66 5.70L148.62 4.71C147.95 4.08 147.10 3.59 145.78 3.59C144.19 3.59 142.76 4.64 142.76 6.15C142.76 7.86 143.92 8.46 145.47 9.01C146.42 9.35 147.20 9.79 147.20 10.70C147.20 11.61 146.33 12.06 145.51 12.06C144.61 12.06 143.86 11.72 143.19 10.89L142.14 11.90C142.98 12.83 144.05 13.34 145.60 13.34ZM156.68 9.70C156.68 7.73 155.36 6.36 153.43 6.36C151.45 6.36 150.02 7.89 150.02 9.84C150.02 11.80 151.43 13.31 153.61 13.31C154.74 13.31 155.71 12.92 156.30 12.25L155.33 11.46C154.90 11.94 154.34 12.19 153.59 12.19C152.35 12.19 151.61 11.33 151.51 10.15L156.68 10.15ZM153.43 7.50C154.47 7.50 155.14 8.12 155.28 9.17L151.56 9.17C151.77 8.17 152.45 7.50 153.43 7.50ZM161.23 6.53L159.82 6.53L159.82 4.64L158.42 4.64L158.42 6.53L157.54 6.53L157.54 7.67L158.42 7.67L158.42 13.15L159.83 13.15L159.82 7.67L161.23 7.67ZM165.45 6.53L164.03 6.53L164.03 4.64L162.63 4.64L162.63 6.53L161.76 6.53L161.76 7.67L162.63 7.67L162.63 13.15L164.05 13.15L164.03 7.67L165.45 7.67ZM167.36 5.26C167.87 5.26 168.28 4.86 168.28 4.36C168.28 3.86 167.87 3.46 167.36 3.46C166.86 3.46 166.45 3.86 166.45 4.36C166.45 4.86 166.86 5.26 167.36 5.26ZM166.69 13.15L168.07 13.15L168.07 6.53L166.69 6.53ZM173.45 6.36C172.52 6.36 171.82 6.75 171.41 7.32L171.24 6.53L170.00 6.53L170.00 13.15L171.41 13.15L171.41 9.11C171.53 7.95 172.32 7.57 173.06 7.57C174.08 7.57 174.52 8.30 174.52 9.38L174.52 13.15L175.93 13.15L175.93 9.06C175.93 7 174.61 6.36 173.45 6.36ZM182.83 6.53L182.64 7.47C182.13 6.80 181.36 6.36 180.34 6.36C178.62 6.36 177.25 7.67 177.25 9.81C177.25 11.96 178.62 13.27 180.34 13.27C181.30 13.27 182.06 12.89 182.57 12.26L182.57 12.43C182.57 14.13 182.06 15.02 180.66 15.02C180.29 15.02 179.90 14.95 179.55 14.79L179.23 15.98C179.67 16.13 180.21 16.22 180.73 16.22C182.89 16.22 183.98 14.95 183.98 12.54L183.98 6.53ZM180.67 12.07C179.48 12.07 178.69 11.11 178.69 9.81C178.69 8.53 179.48 7.54 180.67 7.54C181.91 7.54 182.71 8.53 182.71 9.81C182.71 11.11 181.91 12.07 180.67 12.07ZM185.09 12.22C185.57 12.88 186.58 13.34 187.82 13.34C189.45 13.34 190.46 12.54 190.46 11.35C190.46 9.00 186.96 9.79 186.96 8.36C186.96 7.86 187.34 7.53 188.11 7.51C188.59 7.50 189.15 7.73 189.54 8.11L190.31 7.22C189.88 6.75 189.03 6.36 188.05 6.36C186.48 6.36 185.51 7.19 185.51 8.41C185.51 10.82 188.96 10.09 188.96 11.38C188.96 11.87 188.55 12.21 187.73 12.21C187.08 12.21 186.48 11.97 186.00 11.35Z"></path></g><!----><!----></svg>